# Blender 4.0.1
# www.blender.org
mtllib logo.mtl
o Plane.001
v -1.484309 -0.003749 -2.391031
v 1.233587 -0.003749 -2.383673
v 1.215924 -0.003749 -0.868008
v 0.931648 -0.003749 -0.868008
v 1.274578 -0.003749 0.780899
v 1.404263 -0.003749 0.812356
v 1.502334 -0.003749 0.840751
v 1.575778 -0.003749 0.863673
v 1.645529 -0.003749 0.883202
v 1.702016 -0.003749 0.918824
v 1.762481 -0.003749 0.964356
v 1.797787 -0.003749 0.992096
v 1.829546 -0.003749 1.027297
v 1.842977 -0.005359 1.077350
v 1.877159 -0.005359 1.125099
v 1.930825 -0.005359 1.174084
v 1.992578 -0.005359 1.216972
v 2.006381 -0.005359 1.266004
v 1.960073 -0.005359 1.310135
v 1.923163 -0.005359 1.366559
v 1.856366 -0.005359 1.399715
v 1.779360 -0.005359 1.408370
v 1.769897 -0.005359 1.433988
v -1.609051 -0.005359 0.976062
v -2.007420 -0.005359 0.988775
v -2.001770 -0.005359 2.475364
v 1.767592 -0.005359 2.476707
v -1.225515 -0.005359 -0.852626
v -1.475556 -0.005359 -0.858983
v -1.484999 0.563768 -2.389730
v 1.232897 0.563768 -2.382373
v 1.215234 0.563768 -0.866708
v 0.930958 0.563768 -0.866708
v 1.273888 0.563768 0.782199
v 1.403573 0.563768 0.813656
v 1.501644 0.563768 0.842051
v 1.575088 0.563768 0.864973
v 1.644839 0.563768 0.884502
v 1.701326 0.563768 0.920124
v 1.761791 0.563768 0.965656
v 1.797097 0.563768 0.993396
v 1.828856 0.563768 1.028597
v 1.842287 0.562158 1.078650
v 1.876469 0.562158 1.126399
v 1.930135 0.562158 1.175384
v 1.991888 0.562158 1.218272
v 2.005691 0.562158 1.267304
v 1.959383 0.562158 1.311435
v 1.922473 0.562158 1.367859
v 1.855677 0.562158 1.401015
v 1.778670 0.562158 1.409670
v 1.769208 0.562158 1.435288
v -2.002459 0.562158 2.476664
v -2.008110 0.562158 0.990075
v 1.766902 0.562158 2.478007
v -1.609741 0.562158 0.977362
v -1.226205 0.562158 -0.851326
v -1.476245 0.562158 -0.857683
v -1.484999 0.563768 -2.389730
v 1.232897 0.563768 -2.382373
v 1.215234 0.563768 -0.866708
v 0.930958 0.563768 -0.866708
v 1.273888 0.563768 0.782199
v 1.403573 0.563768 0.813656
v 1.501644 0.563768 0.842051
v 1.575088 0.563768 0.864973
v 1.644839 0.563768 0.884502
v 1.701326 0.563768 0.920124
v 1.761791 0.563768 0.965656
v 1.797097 0.563768 0.993396
v 1.828856 0.563768 1.028597
v 1.842287 0.562158 1.078650
v 1.876469 0.562158 1.126399
v 1.930135 0.562158 1.175384
v 1.991888 0.562158 1.218272
v 2.005691 0.562158 1.267304
v 1.959383 0.562158 1.311435
v 1.922473 0.562158 1.367859
v 1.855677 0.562158 1.401015
v 1.778670 0.562158 1.409670
v 1.769208 0.562158 1.435288
v -2.002459 0.562158 2.476664
v -2.008110 0.562158 0.990075
v 1.766902 0.562158 2.478007
v -1.609741 0.562158 0.977362
v -1.226205 0.562158 -0.851326
v -1.476245 0.562158 -0.857683
v -1.484309 -0.003749 -2.391031
v 1.233587 -0.003749 -2.383673
v 1.215924 -0.003749 -0.868008
v 0.931648 -0.003749 -0.868008
v 1.274578 -0.003749 0.780899
v 1.404263 -0.003749 0.812356
v 1.502334 -0.003749 0.840751
v 1.575778 -0.003749 0.863673
v 1.645529 -0.003749 0.883202
v 1.702016 -0.003749 0.918824
v 1.762481 -0.003749 0.964356
v 1.797787 -0.003749 0.992096
v 1.829546 -0.003749 1.027297
v 1.842977 -0.005359 1.077350
v 1.877159 -0.005359 1.125099
v 1.930825 -0.005359 1.174084
v 1.992578 -0.005359 1.216972
v 2.006381 -0.005359 1.266004
v 1.960073 -0.005359 1.310135
v 1.923163 -0.005359 1.366559
v 1.856366 -0.005359 1.399715
v 1.779360 -0.005359 1.408370
v 1.769897 -0.005359 1.433988
v -1.609051 -0.005359 0.976062
v -2.007420 -0.005359 0.988775
v -2.001770 -0.005359 2.475364
v 1.767592 -0.005359 2.476707
v -1.225515 -0.005359 -0.852626
v -1.475556 -0.005359 -0.858983
vn -0.0000 1.0000 -0.0000
vn -0.4446 0.0015 -0.8957
vn -0.2781 -0.0025 0.9605
vn -0.1117 0.0021 -0.9937
vn -0.2979 -0.0025 0.9546
vn -0.9381 -0.0003 -0.3465
vn -0.2696 -0.0025 0.9630
vn 1.0000 0.0012 -0.0038
vn -0.5334 -0.0026 0.8458
vn 0.0004 0.0023 -1.0000
vn -0.6015 -0.0026 0.7988
vn -1.0000 -0.0012 -0.0022
vn -0.6178 -0.0026 0.7863
vn 0.0319 -0.0023 0.9995
vn -0.7425 -0.0024 0.6699
vn 0.9787 0.0007 0.2053
vn -0.8131 -0.0023 0.5821
vn 0.0254 0.0023 -0.9997
vn -0.6742 -0.0025 0.7386
vn -0.0027 -0.0023 1.0000
vn 1.0000 0.0012 -0.0057
vn -0.5704 -0.0026 0.8213
vn -0.9999 -0.0012 -0.0117
vn -0.9658 -0.0018 0.2591
vn -0.9626 -0.0018 0.2710
vn -0.0000 0.0023 -1.0000
vn -0.6899 0.0008 -0.7239
vn -0.9790 -0.0017 0.2036
vn -0.8369 0.0002 -0.5474
vn -0.2357 -0.0025 0.9718
vn 0.0003 -1.0000 -0.0004
vn -0.0003 1.0000 0.0004
vt 0.000000 0.000000
vt 0.007804 0.188985
vt 0.007805 0.188196
vt 0.029160 0.188196
vt 0.029159 0.188985
vt 0.007862 0.198398
vt 0.007862 0.197293
vt 0.029217 0.197293
vt 0.029218 0.198398
vt 0.007806 0.187348
vt 0.029161 0.187348
vt 0.007861 0.196463
vt 0.029217 0.196463
vt 0.007806 0.187097
vt 0.029162 0.187097
vt 0.007861 0.195678
vt 0.029216 0.195678
vt 0.033349 0.000835
vt 0.040193 0.275523
vt 0.008981 0.274780
vt 0.000341 0.000092
vt 0.007861 0.194982
vt 0.029216 0.194982
vt 0.007821 0.177826
vt 0.007863 0.136487
vt 0.029218 0.136487
vt 0.029176 0.177826
vt 0.007860 0.194205
vt 0.029216 0.194205
vt 0.007860 0.193746
vt 0.029216 0.193746
vt 0.007842 0.298920
vt 0.007838 0.294550
vt 0.029193 0.294550
vt 0.029198 0.298920
vt 0.007861 0.193278
vt 0.029216 0.193278
vt 0.007808 0.277754
vt 0.029164 0.277754
vt 0.007801 0.192809
vt 0.007801 0.192243
vt 0.029156 0.192243
vt 0.029156 0.192809
vt 0.007811 0.275011
vt 0.029166 0.275011
vt 0.007801 0.191511
vt 0.029157 0.191511
vt 0.007850 0.261388
vt 0.007820 0.231580
vt 0.029176 0.231580
vt 0.029206 0.261388
vt 0.007801 0.190733
vt 0.029156 0.190733
vt 0.007841 0.218102
vt 0.029197 0.218102
vt 0.007801 0.190272
vt 0.029157 0.190272
vt 0.007844 0.214984
vt 0.029200 0.214984
vt 0.007802 0.189630
vt 0.029158 0.189630
vt 0.007863 0.199848
vt 0.029219 0.199848
vt 0.800301 0.978433
vt 0.801685 0.675380
vt 0.726896 0.675580
vt 0.813725 0.339499
vt 0.843524 0.335134
vt 0.872327 0.328912
vt 0.891000 0.324326
vt 0.911318 0.316211
vt 0.925893 0.308707
vt 0.937859 0.300232
vt 0.944885 0.292292
vt 0.951579 0.282268
vt 0.957946 0.273808
vt 0.964589 0.266316
vt 0.982955 0.255357
vt 0.991264 0.247838
vt 0.988362 0.237252
vt 0.978444 0.230354
vt 0.966395 0.223474
vt 0.954822 0.218246
vt 0.946345 0.216731
vt 0.934265 0.214999
vt 0.934347 0.001549
vt 0.002648 0.002407
vt 0.003562 0.300969
vt 0.103629 0.301316
vt 0.199493 0.676425
vt 0.134835 0.675329
vt 0.135631 0.978009
vt 0.133679 0.979372
vt 0.134737 0.675353
vt 0.199618 0.675421
vt 0.104775 0.300645
vt 0.004676 0.301089
vt 0.002760 0.003188
vt 0.932763 0.002692
vt 0.934737 0.213878
vt 0.949216 0.217172
vt 0.957259 0.219116
vt 0.968351 0.224536
vt 0.982361 0.231691
vt 0.993457 0.241520
vt 0.995126 0.248336
vt 0.990296 0.253769
vt 0.975144 0.262869
vt 0.960367 0.271883
vt 0.954628 0.279185
vt 0.949011 0.287272
vt 0.944439 0.294975
vt 0.930446 0.306105
vt 0.916005 0.315068
vt 0.896758 0.322404
vt 0.873486 0.329045
vt 0.843381 0.336222
vt 0.813126 0.341039
vt 0.726981 0.675084
vt 0.801456 0.675675
vt 0.801576 0.979162
s 0
usemtl Material.001
f 54/1/1 56/1/1 85/1/1 83/1/1
f 20/2/2 21/3/2 50/4/2 49/5/2
f 6/6/3 7/7/3 36/8/3 35/9/3
f 21/3/4 22/10/4 51/11/4 50/4/4
f 7/7/5 8/12/5 37/13/5 36/8/5
f 22/10/6 23/14/6 52/15/6 51/11/6
f 8/12/7 9/16/7 38/17/7 37/13/7
f 26/18/8 25/19/8 54/20/8 53/21/8
f 9/16/9 10/22/9 39/23/9 38/17/9
f 27/24/10 26/25/10 53/26/10 55/27/10
f 10/22/11 11/28/11 40/29/11 39/23/11
f 23/14/12 27/24/12 55/27/12 52/15/12
f 11/28/13 12/30/13 41/31/13 40/29/13
f 25/32/14 24/33/14 56/34/14 54/35/14
f 12/30/15 13/36/15 42/37/15 41/31/15
f 24/33/16 28/38/16 57/39/16 56/34/16
f 14/40/17 15/41/17 44/42/17 43/43/17
f 28/38/18 29/44/18 58/45/18 57/39/18
f 15/41/19 16/46/19 45/47/19 44/42/19
f 1/48/20 2/49/20 31/50/20 30/51/20
f 29/44/21 1/48/21 30/51/21 58/45/21
f 16/46/22 17/52/22 46/53/22 45/47/22
f 2/49/23 3/54/23 32/55/23 31/50/23
f 13/36/24 14/40/24 43/43/24 42/37/24
f 17/52/25 18/56/25 47/57/25 46/53/25
f 3/54/26 4/58/26 33/59/26 32/55/26
f 18/56/27 19/60/27 48/61/27 47/57/27
f 4/58/28 5/62/28 34/63/28 33/59/28
f 19/60/29 20/2/29 49/5/29 48/61/29
f 5/62/30 6/6/30 35/9/30 34/63/30
f 60/64/31 61/65/31 62/66/31 63/67/31 64/68/31 65/69/31 66/70/31 67/71/31 68/72/31 69/73/31 70/74/31 71/75/31 72/76/31 73/77/31 74/78/31 75/79/31 76/80/31 77/81/31 78/82/31 79/83/31 80/84/31 81/85/31 84/86/31 82/87/31 83/88/31 85/89/31 86/90/31 87/91/31 59/92/31
f 41/1/1 42/1/1 71/1/1 70/1/1
f 56/1/1 57/1/1 86/1/1 85/1/1
f 43/1/1 44/1/1 73/1/1 72/1/1
f 57/1/1 58/1/1 87/1/1 86/1/1
f 44/1/1 45/1/1 74/1/1 73/1/1
f 30/1/1 31/1/1 60/1/1 59/1/1
f 58/1/1 30/1/1 59/1/1 87/1/1
f 45/1/1 46/1/1 75/1/1 74/1/1
f 31/1/1 32/1/1 61/1/1 60/1/1
f 42/1/1 43/1/1 72/1/1 71/1/1
f 46/1/1 47/1/1 76/1/1 75/1/1
f 32/1/1 33/1/1 62/1/1 61/1/1
f 47/1/1 48/1/1 77/1/1 76/1/1
f 33/1/1 34/1/1 63/1/1 62/1/1
f 48/1/1 49/1/1 78/1/1 77/1/1
f 34/1/1 35/1/1 64/1/1 63/1/1
f 49/1/1 50/1/1 79/1/1 78/1/1
f 35/1/1 36/1/1 65/1/1 64/1/1
f 50/1/1 51/1/1 80/1/1 79/1/1
f 36/1/1 37/1/1 66/1/1 65/1/1
f 51/1/1 52/1/1 81/1/1 80/1/1
f 37/1/1 38/1/1 67/1/1 66/1/1
f 53/1/1 54/1/1 83/1/1 82/1/1
f 38/1/1 39/1/1 68/1/1 67/1/1
f 55/1/1 53/1/1 82/1/1 84/1/1
f 39/1/1 40/1/1 69/1/1 68/1/1
f 52/1/1 55/1/1 84/1/1 81/1/1
f 40/1/1 41/1/1 70/1/1 69/1/1
f 4/1/1 3/1/1 90/1/1 91/1/1
f 19/1/1 18/1/1 105/1/1 106/1/1
f 5/1/1 4/1/1 91/1/1 92/1/1
f 20/1/1 19/1/1 106/1/1 107/1/1
f 6/1/1 5/1/1 92/1/1 93/1/1
f 21/1/1 20/1/1 107/1/1 108/1/1
f 7/1/1 6/1/1 93/1/1 94/1/1
f 22/1/1 21/1/1 108/1/1 109/1/1
f 8/1/1 7/1/1 94/1/1 95/1/1
f 23/1/1 22/1/1 109/1/1 110/1/1
f 9/1/1 8/1/1 95/1/1 96/1/1
f 25/1/1 26/1/1 113/1/1 112/1/1
f 10/1/1 9/1/1 96/1/1 97/1/1
f 26/1/1 27/1/1 114/1/1 113/1/1
f 11/1/1 10/1/1 97/1/1 98/1/1
f 27/1/1 23/1/1 110/1/1 114/1/1
f 12/1/1 11/1/1 98/1/1 99/1/1
f 24/1/1 25/1/1 112/1/1 111/1/1
f 13/1/1 12/1/1 99/1/1 100/1/1
f 28/1/1 24/1/1 111/1/1 115/1/1
f 15/1/1 14/1/1 101/1/1 102/1/1
f 29/1/1 28/1/1 115/1/1 116/1/1
f 16/1/1 15/1/1 102/1/1 103/1/1
f 2/1/1 1/1/1 88/1/1 89/1/1
f 1/1/1 29/1/1 116/1/1 88/1/1
f 17/1/1 16/1/1 103/1/1 104/1/1
f 3/1/1 2/1/1 89/1/1 90/1/1
f 14/1/1 13/1/1 100/1/1 101/1/1
f 18/1/1 17/1/1 104/1/1 105/1/1
f 88/93/32 116/94/32 115/95/32 111/96/32 112/97/32 113/98/32 114/99/32 110/100/32 109/101/32 108/102/32 107/103/32 106/104/32 105/105/32 104/106/32 103/107/32 102/108/32 101/109/32 100/110/32 99/111/32 98/112/32 97/113/32 96/114/32 95/115/32 94/116/32 93/117/32 92/118/32 91/119/32 90/120/32 89/121/32
